<svg xmlns="http://www.w3.org/2000/svg" viewBox="0 0 512 512">
  <defs>
    <linearGradient id="bg" x1="0" y1="0" x2="0.6" y2="1">
      <stop offset="0%" stop-color="#8DC5FB"/>
      <stop offset="50%" stop-color="#C0B5F5"/>
      <stop offset="100%" stop-color="#F0A5CA"/>
    </linearGradient>
  </defs>
  <rect width="512" height="512" fill="url(#bg)"/>
  <g transform="translate(0, -27)">
    <!-- Left page -->
    <path d="M82 405
      L82 185
      C100 155, 125 140, 165 140
      C205 140, 224 155, 248 185
      L248 405
      Q248 425, 230 425
      Q165 370, 100 425
      Q82 425, 82 405 Z" fill="white"/>
    <!-- Right page -->
    <path d="M430 405
      L430 185
      C412 155, 387 140, 347 140
      C307 140, 288 155, 264 185
      L264 405
      Q264 425, 282 425
      Q347 370, 412 425
      Q430 425, 430 405 Z" fill="white"/>
  </g>
</svg>
