<svg xmlns="http://www.w3.org/2000/svg" viewBox="0 0 512 512">
  <defs>
    <linearGradient id="bg" x1="0" y1="0" x2="0.6" y2="1">
      <stop offset="0%" stop-color="#8DC5FB"/>
      <stop offset="50%" stop-color="#C0B5F5"/>
      <stop offset="100%" stop-color="#F0A5CA"/>
    </linearGradient>
  </defs>
  <rect width="512" height="512" fill="url(#bg)"/>
  <!-- Left page: smooth dome top, rounded bottom corners -->
  <path d="M82 400
    L82 170
    C82 125, 125 105, 165 105
    C205 105, 248 125, 248 170
    L248 400
    Q248 420, 230 420
    Q165 365, 100 420
    Q82 420, 82 400 Z" fill="white"/>
  <!-- Right page: mirror -->
  <path d="M430 400
    L430 170
    C430 125, 387 105, 347 105
    C307 105, 264 125, 264 170
    L264 400
    Q264 420, 282 420
    Q347 365, 412 420
    Q430 420, 430 400 Z" fill="white"/>
</svg>
