<svg xmlns="http://www.w3.org/2000/svg" viewBox="0 0 320 66" fill="none">
  <defs>
    <linearGradient id="grad" x1="0" y1="0" x2="0.6" y2="1">
      <stop offset="0%" stop-color="#8DC5FB"/>
      <stop offset="50%" stop-color="#C0B5F5"/>
      <stop offset="100%" stop-color="#F0A5CA"/>
    </linearGradient>
  </defs>
  <!-- Book icon (matching logo-full shape, scaled to ~66px height) -->
  <g transform="translate(0, 0)">
    <!-- Left page -->
    <path d="M0 52
      L0 19
      C2.3 15, 5.5 13, 10.7 13
      C15.9 13, 19 15, 21.4 19
      L21.4 52
      Q21.4 54.6, 19.1 54.6
      Q10.7 48.5, 2.3 54.6
      Q0 54.6, 0 52 Z" fill="url(#grad)"/>
    <!-- Right page -->
    <path d="M56 52
      L56 19
      C53.7 15, 50.5 13, 45.3 13
      C40.1 13, 37 15, 34.6 19
      L34.6 52
      Q34.6 54.6, 36.9 54.6
      Q45.3 48.5, 53.7 54.6
      Q56 54.6, 56 52 Z" fill="url(#grad)"/>
  </g>
  <!-- Readmigo text -->
  <text x="72" y="48" font-family="SF Pro Display, -apple-system, BlinkMacSystemFont, Inter, Helvetica, sans-serif"
        font-size="38" font-weight="700" letter-spacing="-0.5" fill="url(#grad)">
    Readmigo
  </text>
</svg>
